<svg t="1677124418748" class="icon" viewBox="0 0 1024 1024" version="1.1" xmlns="http://www.w3.org/2000/svg" p-id="7069" width="200" height="200"><path d="M1000.96 199.296L859.264 57.6c-4-4-9.248-5.952-14.496-5.952s-10.464 1.952-14.464 5.952L460.832 427.136v170.656h170.656L1000.992 228.256c4-4 5.952-9.248 5.952-14.496s-1.92-10.464-5.952-14.464zM511.968 546.592v-83.264l83.264 83.264h-83.264z m129.024-26.656l-102.4-102.4 236.864-236.864 102.4 102.4-236.864 236.864z m273.088-273.056l-102.4-102.4 33.088-33.088 102.4 102.4-33.088 33.088z m-487.424 77.792h-307.2v51.2h307.2v-51.2z m238.912-153.568V51.616c0-18.848-15.264-34.144-34.144-34.144H51.2c-18.848 0-34.144 15.296-34.144 34.144v631.456c0 18.848 15.296 34.144 34.144 34.144h580.224c18.848 0 34.144-15.264 34.144-34.144v-51.168h-51.2v34.144l-546.112-0.032V68.672h546.112v102.432h51.2z m-119.456-0.032H119.488v51.168h426.624V171.072z m-426.656 358.4h307.2v-51.2h-307.2v51.2z" p-id="7070"></path></svg>