<svg width="30" height="30" viewBox="0 0 30 30" fill="none" xmlns="http://www.w3.org/2000/svg">
<path d="M26.4169 10.8814L12.8147 24.4857C10.8518 26.4486 7.6584 26.4486 5.69551 24.4857C4.75199 23.5421 4.22194 22.2624 4.22194 20.9281C4.22194 19.5937 4.75199 18.314 5.69551 17.3704L18.0603 5.00271C18.6758 4.38647 19.511 4.04001 20.382 4.03954C21.2531 4.03907 22.0886 4.38464 22.7048 5.00022C23.3211 5.6158 23.6675 6.45097 23.668 7.32199C23.6685 8.19302 23.3229 9.02856 22.7073 9.6448L10.3417 22.0122C10.0532 22.3001 9.66233 22.4618 9.25479 22.4618C8.84724 22.4618 8.45634 22.3001 8.16787 22.0122C7.88041 21.7247 7.71892 21.3348 7.71892 20.9282C7.71892 20.5216 7.88041 20.1317 8.16787 19.8442L18.6787 9.33132L17.1427 7.78943L6.63184 18.302C5.9353 18.9976 5.54361 19.9415 5.54295 20.9259C5.54229 21.9103 5.93271 22.8546 6.62832 23.5511C7.32393 24.2477 8.26776 24.6394 9.25216 24.64C10.2366 24.6407 11.1809 24.2503 11.8774 23.5547L24.2431 11.1864C25.2673 10.1618 25.8427 8.77235 25.8427 7.32361C25.8427 5.87487 25.2673 4.48543 24.2431 3.46082C22.1149 1.3324 18.6523 1.3324 16.5245 3.46082L4.16006 15.8285C2.83404 17.1853 2.0963 19.0102 2.1068 20.9073C2.1173 22.8045 2.87519 24.621 4.21614 25.9631C5.5571 27.3052 7.37302 28.0646 9.27016 28.0766C11.1673 28.0887 12.9928 27.3525 14.3507 26.0276L27.9529 12.4233L26.4169 10.8814Z" fill="#333333"/>
</svg>
