<svg width="40" height="40" viewBox="0 0 40 40" fill="none" xmlns="http://www.w3.org/2000/svg">
<path d="M35.3737 16.1919C35.3283 15.7575 34.9596 15.4191 34.5101 15.4191C34.0606 15.4191 33.697 15.7575 33.6465 16.1919H33.6414V31.2626C33.6414 32.6464 32.5151 33.7727 31.1313 33.7727H8.84342C7.45958 33.7727 6.33332 32.6464 6.33332 31.2626V8.79288C6.33332 7.40905 7.45958 6.28278 8.84342 6.28278H23.8081C24.2778 6.26763 24.6515 5.88884 24.6515 5.4141C24.6515 4.93935 24.2778 4.56056 23.8081 4.54541H8.84342C6.49999 4.54541 4.59595 6.44945 4.59595 8.79288V31.2626C4.59595 33.606 6.49999 35.5101 8.84342 35.5101H31.1313C33.4747 35.5101 35.3788 33.606 35.3788 31.2626V16.1919H35.3737Z" fill="black"/>
<path d="M13.0052 25.2879L13.0001 25.3031C12.9294 25.6061 12.8688 26.1667 13.2577 26.5556C13.5001 26.798 13.8082 26.8637 14.0809 26.8637C14.2476 26.8637 14.3991 26.8384 14.5153 26.8132L19.2577 25.5607L34.3739 10.4445C34.9042 9.91421 35.192 9.21219 35.192 8.46471C35.192 7.71724 34.8991 7.01522 34.3739 6.48491L33.3284 5.43946C32.2375 4.34855 30.4597 4.34855 29.3688 5.43946L14.2526 20.5607L13.0052 25.2879ZM15.6466 21.9849L17.8335 24.1718L14.8941 24.9243L15.6466 21.9849ZM16.692 20.5758L28.5052 8.76269L31.0506 11.3081L19.2375 23.1213L16.692 20.5758ZM32.1011 6.66673L33.1466 7.71219C33.5607 8.12633 33.5607 8.79804 33.1466 9.21219L32.2829 10.0758L29.7375 7.53037L30.6011 6.66673C31.0102 6.25259 31.687 6.25259 32.1011 6.66673Z" fill="black"/>
</svg>
